<svg xmlns="http://www.w3.org/2000/svg" viewBox="0 0 500 500"><g id="freepik--background-simple--inject-2"><path d="M74,191.89,75.39,194c11.64,17.84,32,28.16,53,26.15a54.64,54.64,0,0,0,8-1.37c19-4.71,35.19-19.72,41.49-38.48,3.71-11,4.44-23.63,11.86-32.53,9.66-11.59,26.68-12.49,41.66-12.51s32-1,41.61-12.59c6-7.29,7.68-17.42,6.87-26.89-2.15-25.06-20.37-46.94-43-57.38s-48.83-10.59-73-4.89C130,41.5,98.15,61.43,79.6,91.23S57.4,160.92,74,191.89Z" style="fill:#f5f5f5"></path><circle cx="399.35" cy="125.09" r="58.77" transform="translate(-17.96 156.34) rotate(-21.67)" style="fill:#f5f5f5"></circle><circle cx="215.69" cy="318.43" r="58.77" style="fill:#f5f5f5"></circle></g><g id="freepik--bread-2--inject-2"><path d="M212.32,434.87l.34-19.31a2.66,2.66,0,0,1,2.09-2.55c4.35-.94,14.65-3.36,21.73-6.75,9.17-4.38,20.16-10.81,28-14,8.66-3.51,31.86-14.62,36.4-16.16a2.6,2.6,0,0,1,1.41-.08L390.5,395a3.11,3.11,0,0,0,.44.06c1.43.05,9.54.53,10,4.41.44,3.47-.1,16.38-.31,21.05a2.66,2.66,0,0,1-1.64,2.33c-8.14,3.35-45.71,19.14-55.06,28.7-10.5,10.73-22.79,19.92-27.64,20.14s-22.3-6.16-27.43-7.77c-4.64-1.45-63.68-22.5-74.79-26.46A2.66,2.66,0,0,1,212.32,434.87Z" style="fill:#ffbe9d"></path><path d="M401,399.43s-29,13.18-41.85,18.73S337,433.05,331.5,438.74s-8.21,9.5-17.3,9.75S277.65,437.75,263.45,432c-13.69-5.53-42.66-15.53-49.36-17.83a1.08,1.08,0,0,0-1.42,1l-.07,3.67-.31,17.92s71.47,25.49,76.59,27.1,22.57,8,27.43,7.77,17.14-9.41,27.64-20.14,56.62-29.34,56.62-29.34S401.5,403.69,401,399.43Z" style="fill:#eb996e"></path><path d="M263.63,399.49c-1.47.21-2.51,1.2-2.24,2.12s1.82,1.65,3.32,1.56,2.73-1,2.65-1.93-1.48-1.78-3-1.8" style="fill:#eb996e"></path><path d="M352.54,410.3c-1.46.21-2.5,1.2-2.23,2.12s1.81,1.65,3.32,1.56,2.73-1,2.64-1.93-1.47-1.77-3-1.8" style="fill:#eb996e"></path><path d="M353,406.19c-.84.12-1.45.69-1.29,1.23s1.05.95,1.92.9,1.58-.58,1.53-1.12-.85-1-1.73-1" style="fill:#eb996e"></path><path d="M334.5,422.14c-.85.12-1.45.69-1.29,1.23s1.05.95,1.92.89,1.57-.57,1.52-1.11-.85-1-1.72-1" style="fill:#eb996e"></path><path d="M255.79,402.05c-.85.12-1.45.7-1.29,1.23s1,1,1.91.9,1.58-.58,1.53-1.12-.85-1-1.73-1" style="fill:#eb996e"></path><path d="M214.09,414.18l.52.15,1.49.49,5.72,1.93c5,1.69,12.13,4.16,21,7.31,4.41,1.58,9.24,3.33,14.4,5.27s10.6,4.21,16.37,6.46,11.84,4.58,18.21,6.79q4.77,1.67,9.77,3.16a68.65,68.65,0,0,0,10.27,2.34,8.17,8.17,0,0,0,1.31.1c.44,0,.87.06,1.31,0l1.32-.07,1.31-.15a16.89,16.89,0,0,0,5-1.4c3.13-1.46,5.48-4,7.8-6.46a121,121,0,0,1,14.25-13.26,70.89,70.89,0,0,1,15.13-9l14-6.23,20.29-9,5.53-2.42,1.45-.62.49-.2s-.15.09-.47.25l-1.42.66-5.49,2.51L373.35,412l-14,6.29a70.77,70.77,0,0,0-15,9,121.62,121.62,0,0,0-14.17,13.23c-2.31,2.42-4.7,5.06-7.95,6.58a17.7,17.7,0,0,1-5.11,1.45l-1.34.14-1.34.08c-.44,0-.9,0-1.35,0a8.67,8.67,0,0,1-1.35-.1,71.26,71.26,0,0,1-10.36-2.36q-5-1.5-9.79-3.18c-6.38-2.22-12.45-4.56-18.22-6.83s-11.19-4.55-16.34-6.49-10-3.73-14.37-5.33l-20.91-7.47-5.68-2-1.48-.54C214.26,414.26,214.09,414.18,214.09,414.18Z" style="fill:#263238"></path><g style="opacity:0.2"><path d="M240.15,404.41c11.4,6.31,23.59,12.81,36.6,12.09,10-.56,19.25-5.37,28.3-9.72a372.11,372.11,0,0,1,49.23-19.59c-13-2.82-25.51-5.69-38.59-8.3-4-.8-11-2.3-13.48-2.93a3.31,3.31,0,0,0-1.87.32c-2.73,1.17-12.79,5.55-16,7-26.24,11.89-28.81,13.24-44.17,21.11"></path></g></g><g id="freepik--Bacon--inject-2"><path d="M198.4,331.31c-.32.82,11.46,44.33,11.46,44.33s29.54,7.33,43.54,3.63,55.13-18.29,64.86-19.88,38.63-.78,52.75.9,29.9,1.5,38.79-2l.21-2.39-18.69-36.8a136.52,136.52,0,0,1-32.45-.6c-18.54-2.44-43.43-3.89-63.68,4.62s-30.74,10.44-38.95,11.35c-7.71.86-52.27-5.13-57.63-5.56Z" style="fill:#064420"></path><path d="M198.4,331.31c-.32.82,11.46,44.33,11.46,44.33s29.54,7.33,43.54,3.63,55.13-18.29,64.86-19.88,38.63-.78,52.75.9,29.9,1.5,38.79-2l.21-2.39-18.69-36.8a136.52,136.52,0,0,1-32.45-.6c-18.54-2.44-43.43-3.89-63.68,4.62s-30.74,10.44-38.95,11.35c-7.71.86-52.27-5.13-57.63-5.56Z" style="opacity:0.30000000000000004"></path><path d="M198.61,328.93c-.32.82,11.47,44.33,11.47,44.33s29.53,7.33,43.53,3.62,55.14-18.29,64.86-19.87,38.64-.79,52.75.9,29.9,1.49,38.79-2l-18.48-39.18a136.5,136.5,0,0,1-32.45-.6c-18.53-2.45-43.43-3.89-63.68,4.62s-30.74,10.43-38.95,11.35S198.61,328.93,198.61,328.93Z" style="fill:#064420"></path><path d="M410,355.92c-8.89,3.48-25.07,3.52-39.19,1.83s-43-2.48-52.75-.9S267.21,373,253.21,376.73s-42.65-3.13-42.65-3.13l-.7,2-4.24-15.81.52-1.24a165.17,165.17,0,0,1,28.75-.22c14.54,1.31,27.45,4.39,35.17,2.35s19.85-5,26-8.58,20.47-9.06,35.17-8.16,22.26,2.39,34.36,3.24,35.68-4.64,37.84-5.23Z" style="fill:#fff;opacity:0.30000000000000004"></path><path d="M199.33,335.67l.57-.92a59.34,59.34,0,0,0,25.86,4.56c15.06-.63,48.29-5,50.25-3.89s2.74.94-1.41,3.64S219.32,352.84,204,350.5l-.63.82Z" style="fill:#fff;opacity:0.30000000000000004"></path><path d="M394.71,323.48s-15.57,7.22-56.18,3.48c0,0-26.13-1-40.19,6.94s-32.33,13.79-35,15.15-9,3-4.22,4.1,26.14-5.19,33.25-9.37,11.69-5.52,17.14-7.24,20.84-2,37.54-.07,38.82,3.43,44.44.63,7.86-3.77,7.86-3.77Z" style="fill:#fff;opacity:0.30000000000000004"></path><g style="opacity:0.8"><path d="M301.09,320.11s-.06.06-.21.14l-.65.36c-.58.32-1.43.77-2.55,1.33-2.24,1.1-5.51,2.63-9.69,4.22a114.6,114.6,0,0,1-15,4.56,122.66,122.66,0,0,1-19,2.77,221.38,221.38,0,0,1-34.82-.89c-4.44-.41-8-.81-10.5-1.08l-2.85-.34-.74-.1a.83.83,0,0,1-.25-.06h.25l.75.05,2.86.25,10.51.91c8.87.7,21.19,1.64,34.75.74a125.64,125.64,0,0,0,18.92-2.72,118.82,118.82,0,0,0,15-4.43c4.17-1.54,7.46-3,9.72-4.07,1.13-.52,2-.94,2.59-1.23l.68-.32A.76.76,0,0,1,301.09,320.11Z" style="fill:#fff"></path></g><g style="opacity:0.8"><path d="M318.91,317.37c0,.15-2.8.32-6.23.8s-6.18,1.05-6.22.9a24.38,24.38,0,0,1,6.15-1.42A23.7,23.7,0,0,1,318.91,317.37Z" style="fill:#fff"></path></g><g style="opacity:0.8"><path d="M379.31,320.64c0,.14-11-.59-24.57-1.63s-24.54-2-24.52-2.16,11,.59,24.56,1.64S379.32,320.5,379.31,320.64Z" style="fill:#fff"></path></g><g style="opacity:0.8"><path d="M212.61,369.24a6,6,0,0,1-.46-1.11c-.27-.72-.63-1.77-1.06-3.08-.87-2.61-2-6.24-3.18-10.28s-2.13-7.72-2.78-10.4c-.33-1.33-.58-2.42-.74-3.17a6,6,0,0,1-.2-1.19,4.82,4.82,0,0,1,.4,1.14l.89,3.13,2.93,10.34,3,10.32c.36,1.24.66,2.29.9,3.13A4.68,4.68,0,0,1,212.61,369.24Z" style="fill:#fff"></path></g><g style="opacity:0.30000000000000004"><path d="M204.05,330.67c7.32,9.13,6.55,24,16.2,30.59,4.65,3.2,10.63,3.58,16.28,3.48a130.42,130.42,0,0,0,55-13.23c11.5-5.63,22.3-13,34.64-16.42,24.22-6.7,49.86,2.87,75,1.83l-8.37-18.55Z"></path></g><path d="M202.65,306.17c-.27.9,15.62,46.41,15.62,46.41s32.07,5.56,46.72.54S322.41,329.4,332.66,327s41.15-3.79,56.34-3.07,32-.69,41.22-5.08l0-2.56-22.75-37.83a145.78,145.78,0,0,1-34.66,1.84c-20-1.19-46.62-.84-67.58,9.79s-32,13.48-40.68,15.08c-8.16,1.51-56.15-1.48-61.9-1.53Z" style="fill:#064420"></path><path d="M202.65,306.17c-.27.9,15.62,46.41,15.62,46.41s32.07,5.56,46.72.54S322.41,329.4,332.66,327s41.15-3.79,56.34-3.07,32-.69,41.22-5.08l0-2.56-22.75-37.83a145.78,145.78,0,0,1-34.66,1.84c-20-1.19-46.62-.84-67.58,9.79s-32,13.48-40.68,15.08c-8.16,1.51-56.15-1.48-61.9-1.53Z" style="opacity:0.30000000000000004"></path><path d="M202.7,303.61c-.28.9,15.62,46.41,15.62,46.41s32.06,5.56,46.71.54,57.42-23.72,67.67-26.15,41.16-3.79,56.35-3.07,32-.69,41.22-5.08l-22.71-40.39a145.78,145.78,0,0,1-34.66,1.84c-20-1.19-46.62-.84-67.58,9.79s-32,13.48-40.68,15.08S202.7,303.61,202.7,303.61Z" style="fill:#064420"></path><path d="M430.27,316.26c-9.21,4.39-26.47,5.66-41.66,4.94s-46.09.64-56.34,3.07-53,21.14-67.68,26.16-45.73-.08-45.73-.08l-.59,2.23L212.53,336l.46-1.36a177,177,0,0,1,30.65-2.44c15.62.3,29.63,2.59,37.7-.17s20.8-6.85,27.1-11.15,21.14-11.22,36.9-11.39,23.92.85,36.89.83,37.7-7.67,40-8.46Z" style="fill:#fff;opacity:0.30000000000000004"></path><path d="M204,310.74l.54-1a63.32,63.32,0,0,0,27.93,2.89c16-1.83,51.14-9,53.31-8s3,.8-1.22,4-57.92,18.92-74.46,17.59l-.6.92Z" style="fill:#fff;opacity:0.30000000000000004"></path><path d="M411.47,282.82s-16.05,8.89-59.66,8c0,0-27.95.91-42.34,10.46S276,318.48,273.28,320.13s-9.4,3.85-4.18,4.7,27.49-7.54,34.76-12.54,12-6.78,17.72-9,22.08-3.71,40-2.95,41.67.7,47.46-2.72,8.1-4.62,8.1-4.62Z" style="fill:#fff;opacity:0.30000000000000004"></path><g style="opacity:0.8"><path d="M311.35,286.38l-.22.16-.67.43c-.59.38-1.47.93-2.62,1.61-2.3,1.35-5.68,3.23-10,5.24a121.94,121.94,0,0,1-15.65,6,131.91,131.91,0,0,1-20,4.41c-14.45,2-27.69,1.87-37.21,1.71-4.77-.09-8.62-.24-11.28-.35l-3.07-.14-.8-.05-.27,0a.8.8,0,0,1,.27,0h.8l3.07,0,11.29.18c9.51.07,22.73.14,37.13-1.86a133.58,133.58,0,0,0,20-4.35,127.85,127.85,0,0,0,15.64-5.87c4.34-2,7.73-3.79,10.06-5.09,1.16-.64,2.06-1.16,2.67-1.52l.69-.39C311.26,286.41,311.34,286.37,311.35,286.38Z" style="fill:#fff"></path></g><g style="opacity:0.8"><path d="M330.14,282.09c0,.15-3,.54-6.58,1.31s-6.51,1.6-6.56,1.46a38,38,0,0,1,13.14-2.77Z" style="fill:#fff"></path></g><g style="opacity:0.8"><path d="M394.82,281c0,.14-11.79.19-26.33.11s-26.32-.26-26.32-.41,11.78-.19,26.33-.11S394.82,280.82,394.82,281Z" style="fill:#fff"></path></g><g style="opacity:0.8"><path d="M220.72,345.54a5.43,5.43,0,0,1-.58-1.15c-.33-.75-.8-1.84-1.36-3.21-1.13-2.72-2.62-6.5-4.17-10.72s-2.86-8.07-3.77-10.88c-.45-1.4-.8-2.54-1-3.33a6.66,6.66,0,0,1-.31-1.24,6.51,6.51,0,0,1,.5,1.18l1.19,3.27,3.91,10.82,4,10.77,1.21,3.27A6.62,6.62,0,0,1,220.72,345.54Z" style="fill:#fff"></path></g></g><g id="freepik--Egg--inject-2"><path d="M417.61,227.69c-2.21-4.16-6.74-6.59-11.29-7.81s-9.3-1.47-13.88-2.57c-8.77-2.12-16.52-7.3-25.18-9.87-19.89-5.91-40.72,2.1-59.69,10.5-12.62,1.77-21.74-2.89-33.94-6.55s-25.48-6.66-37.48-2.37c-9,3.22-16.79,10.42-26.36,10.87-6.57.31-14.17-2.4-19.1,2-4.19,3.7-3.57,10.71-.39,15.31,4.84,7,13.81,9.86,22.28,10.7S229.7,248,238,250c19.59,4.76,33.4,23.61,53,28.27,15,3.56,30.62-1.88,44.55-8.5s27.65-14.63,42.94-16.64c6.16-.81,12.42-.62,18.58-1.42s12.45-2.72,16.9-7S420.52,233.18,417.61,227.69Z" style="fill:#064420"></path><g style="opacity:0.8"><path d="M417.61,227.69c-2.21-4.16-6.74-6.59-11.29-7.81s-9.3-1.47-13.88-2.57c-8.77-2.12-16.52-7.3-25.18-9.87-19.89-5.91-40.72,2.1-59.69,10.5-12.62,1.77-21.74-2.89-33.94-6.55s-25.48-6.66-37.48-2.37c-9,3.22-16.79,10.42-26.36,10.87-6.57.31-14.17-2.4-19.1,2-4.19,3.7-3.57,10.71-.39,15.31,4.84,7,13.81,9.86,22.28,10.7S229.7,248,238,250c19.59,4.76,33.4,23.61,53,28.27,15,3.56,30.62-1.88,44.55-8.5s27.65-14.63,42.94-16.64c6.16-.81,12.42-.62,18.58-1.42s12.45-2.72,16.9-7S420.52,233.18,417.61,227.69Z" style="fill:#fff"></path></g><path d="M340.47,240.37A44.56,44.56,0,0,0,299,217.15c-14.48,1-28.07,9.87-35.16,22.47a7.2,7.2,0,0,0,2.58,9.69c20.5,12.19,48.25,14.63,69.54,4.38,2.43-1.17,5-2.68,5.92-5.2S341.79,242.88,340.47,240.37Z" style="fill:#064420"></path><g style="opacity:0.30000000000000004"><path d="M326.57,245.3a13.61,13.61,0,0,0-5.1.76A47.38,47.38,0,0,1,289.12,243c-2.44-1.18-5.1-3.11-5-5.82a9.3,9.3,0,0,1,1.4-3.7,5.21,5.21,0,0,0,.77-3.81c-.38-1.27-2.09-2.15-3.1-1.29-3.07,1.5-7.51,5.45-9.76,8s-3.4,6.41-1.85,9.45c1.05,2.08,3.14,3.43,5.22,4.47,9.84,4.94,21.26,5.27,32.27,5.5,6.37.13,13.19.14,18.49-3.41,1.33-.9,2.63-2.24,2.55-3.84S328.28,245.53,326.57,245.3Z" style="fill:#fff"></path></g><g style="opacity:0.8"><path d="M313.3,271.63c-2.29,6.39-27.19,2.15-38.36-5.13-8.91-5.8-15.73-14.73-25.42-19.09-8.64-3.9-18.47-3.68-27.91-4.6S199.69,241,194,233.39c0,0-2.42-1.94,2.13-2.33s2,3.92,15.32,6.14,23.76-5.92,48.88,14.19,34.77,19.63,40,19.34S314.4,268.56,313.3,271.63Z" style="fill:#fff"></path></g><g style="opacity:0.8"><path d="M197.45,223a11.58,11.58,0,0,0-3.85,1.57,11.42,11.42,0,0,0-2.69,3.16c-.06,0,0-.51.36-1.23a6.56,6.56,0,0,1,2-2.35,6.68,6.68,0,0,1,2.87-1.19A2.27,2.27,0,0,1,197.45,223Z" style="fill:#fff"></path></g><g style="opacity:0.8"><path d="M245.32,211.56a35.21,35.21,0,0,0-5.37-.19,21.43,21.43,0,0,0-5.67,1.21,24.81,24.81,0,0,0-6.22,3.42c-2.07,1.47-4,3-5.93,4.1a16.84,16.84,0,0,1-5.53,2.11,9.78,9.78,0,0,1-4-.08,5.83,5.83,0,0,1-1-.34c-.23-.09-.35-.15-.34-.17s.5.15,1.41.32a10.53,10.53,0,0,0,3.88-.1,17.3,17.3,0,0,0,5.35-2.15c1.88-1.12,3.79-2.63,5.87-4.12a24.54,24.54,0,0,1,6.36-3.45,20.49,20.49,0,0,1,5.8-1.11,19.17,19.17,0,0,1,4,.22,8.55,8.55,0,0,1,1.06.22A1.62,1.62,0,0,1,245.32,211.56Z" style="fill:#fff"></path></g><g style="opacity:0.8"><path d="M374.78,229.93s-.78.12-2.16.38a25,25,0,0,0-5.67,1.82,41.54,41.54,0,0,0-7.58,4.56c-2.69,2-5.44,4.41-8.34,7-5.82,5.12-11.7,9.09-16.36,11.17a31.92,31.92,0,0,1-5.66,2c-.69.19-1.24.26-1.61.33a1.82,1.82,0,0,1-.56.07s.76-.21,2.11-.6a36.76,36.76,0,0,0,5.57-2.17,74.41,74.41,0,0,0,16.16-11.24c2.9-2.55,5.68-5,8.41-7a39.86,39.86,0,0,1,7.71-4.52,23.5,23.5,0,0,1,5.78-1.68,15.82,15.82,0,0,1,1.63-.17A2.45,2.45,0,0,1,374.78,229.93Z" style="fill:#fff"></path></g><g style="opacity:0.8"><path d="M409,242.51a20.21,20.21,0,0,0,2.3-1.68,9.09,9.09,0,0,0,1.16-12.32,18.88,18.88,0,0,0-2-2.08s.27.09.69.38a8,8,0,0,1,1.55,1.47,9.08,9.08,0,0,1-1.2,12.83,7.84,7.84,0,0,1-1.8,1.15A2,2,0,0,1,409,242.51Z" style="fill:#fff"></path></g><g style="opacity:0.8"><path d="M262.49,216.37A35,35,0,0,0,239,212.62c-5.1,1-10.31,3.47-12.68,8.09-.75,1.4,1.85,2.11,3.1,1.78s2.46-1.69,3.55-2.37a24.94,24.94,0,0,1,18.77-3.07c3.28.78,6.46,2.24,9.83,2.19,1,0,2.22-.44,2.19-1.42C263.72,217.15,263.07,216.7,262.49,216.37Z" style="fill:#fff"></path></g><g style="opacity:0.8"><path d="M298.53,219.84a8.26,8.26,0,0,1-1.58.31c-.51.07-1.14.17-1.85.34s-1.54.29-2.43.56-1.87.51-2.89.88-2.1.78-3.23,1.24A42.81,42.81,0,0,0,273.48,232c-.85.87-1.68,1.69-2.36,2.53a29.74,29.74,0,0,0-1.9,2.35c-.58.71-1,1.43-1.44,2s-.75,1.14-1,1.59a10.53,10.53,0,0,1-.87,1.36,9.55,9.55,0,0,1,.7-1.46,14.51,14.51,0,0,1,.94-1.64c.4-.63.82-1.36,1.38-2.1a27.35,27.35,0,0,1,1.87-2.41c.68-.86,1.5-1.7,2.35-2.59a41.18,41.18,0,0,1,13.22-8.92c1.15-.45,2.23-.9,3.29-1.21a27.51,27.51,0,0,1,2.93-.82c.9-.25,1.74-.36,2.46-.5a16.67,16.67,0,0,1,1.88-.25A11.29,11.29,0,0,1,298.53,219.84Z" style="fill:#fff"></path></g><g style="opacity:0.8"><path d="M308.28,220.34a9.54,9.54,0,0,1-2.5-.16,10.33,10.33,0,0,1-2.49-.28,4.53,4.53,0,0,1,2.53-.24A4.62,4.62,0,0,1,308.28,220.34Z" style="fill:#fff"></path></g></g><g id="freepik--bread-1--inject-2"><path d="M218.94,169.23l.32-18.5a2.55,2.55,0,0,1,2-2.45c4.17-.89,14-3.22,20.82-6.46,8.79-4.21,19.33-10.36,26.87-13.42,8.29-3.37,30.53-14,34.88-15.49a2.48,2.48,0,0,1,1.35-.08L389.7,131a2.12,2.12,0,0,0,.43.06c1.36.05,9.14.51,9.6,4.23.42,3.33-.09,15.7-.3,20.17a2.55,2.55,0,0,1-1.57,2.24c-7.8,3.21-43.81,18.34-52.77,27.5-10.06,10.29-21.84,19.09-26.49,19.3s-21.37-5.9-26.28-7.44c-4.45-1.4-61-21.57-71.69-25.36A2.55,2.55,0,0,1,218.94,169.23Z" style="fill:#ffbe9d"></path><path d="M399.73,135.27S372,147.9,359.62,153.22s-21.22,14.27-26.46,19.72-7.87,9.11-16.58,9.35-35-10.3-48.64-15.8c-13.12-5.3-40.89-14.88-47.3-17.08a1,1,0,0,0-1.37,1l-.06,3.52-.3,17.17s68.49,24.44,73.41,26,21.62,7.65,26.28,7.44,16.43-9,26.49-19.3,54.26-28.11,54.26-28.11S400.24,139.35,399.73,135.27Z" style="fill:#eb996e"></path><path d="M268.11,135.33c-1.4.2-2.4,1.15-2.14,2s1.74,1.58,3.18,1.49,2.62-.95,2.54-1.85-1.42-1.7-2.87-1.72" style="fill:#eb996e"></path><path d="M353.33,145.69c-1.41.2-2.4,1.15-2.14,2s1.74,1.58,3.17,1.49,2.62-1,2.54-1.85-1.41-1.7-2.86-1.72" style="fill:#eb996e"></path><path d="M353.81,141.75c-.82.12-1.39.66-1.24,1.18s1,.91,1.84.86,1.51-.55,1.46-1.07-.81-1-1.65-1" style="fill:#eb996e"></path><path d="M336,157c-.82.12-1.39.67-1.24,1.18s1,.91,1.83.86,1.52-.55,1.47-1.07-.82-1-1.66-1" style="fill:#eb996e"></path><path d="M260.6,137.78c-.82.12-1.39.67-1.24,1.18s1,.91,1.84.86,1.51-.55,1.46-1.07-.81-1-1.65-1" style="fill:#eb996e"></path><path d="M220.64,149.41l.49.14,1.43.47,5.48,1.84c4.76,1.62,11.63,4,20.09,7,4.23,1.51,8.86,3.18,13.81,5s10.15,4,15.68,6.18,11.35,4.4,17.45,6.51q4.57,1.6,9.37,3a65.67,65.67,0,0,0,9.84,2.24,7.64,7.64,0,0,0,1.26.1c.42,0,.83.06,1.25,0l1.27-.07,1.25-.14a16.7,16.7,0,0,0,4.75-1.34c3-1.4,5.25-3.87,7.47-6.19a115.13,115.13,0,0,1,13.66-12.71A67.75,67.75,0,0,1,359.7,153l13.42-6,19.45-8.61,5.3-2.32,1.39-.59.47-.19-.45.24-1.36.63-5.26,2.41-19.39,8.77-13.4,6a67.58,67.58,0,0,0-14.39,8.6,115.76,115.76,0,0,0-13.58,12.68c-2.21,2.32-4.5,4.85-7.62,6.31a17,17,0,0,1-4.9,1.38l-1.28.15-1.29.07c-.43,0-.86,0-1.3,0a7.92,7.92,0,0,1-1.29-.1,65.74,65.74,0,0,1-9.93-2.26q-4.8-1.44-9.38-3c-6.11-2.12-11.93-4.37-17.46-6.54s-10.73-4.36-15.67-6.23-9.55-3.57-13.77-5.1l-20-7.17-5.45-1.93-1.42-.52Z" style="fill:#263238"></path><g style="opacity:0.30000000000000004"><path d="M330.72,122.63c-9.57-2-19.37-4.11-29.06-2.77-9.52,1.31-18.27,5.8-26.74,10.35q-13.91,7.47-27.56,15.42a3.17,3.17,0,0,0-.94,4.63h0c5.42,4.75,12.24,3.81,18.89,1,7.07-2.94,12.53-8.65,18.51-13.42s13.4-8.85,20.95-7.57c3.89.67,7.4,2.7,11.16,3.88,4.1,1.29,8.44,1.54,12.73,1.78l22.75,1.29a3.74,3.74,0,0,0,2.11-7C346.81,126.26,338.52,124.29,330.72,122.63Z" style="fill:#fff"></path></g></g><g id="freepik--Character--inject-2"><path d="M90.11,342.32s1.44,32.06,2.64,42.82S104.2,442,104.2,442l15.88,1.16-4.61-96.8Z" style="fill:#ffbe9d"></path><path d="M141.85,346.39s-4,25.31-7.1,38-16.89,50.52-16.89,50.52l-9.81-35.64,7.42-52.87Z" style="fill:#ffbe9d"></path><path d="M116.63,352.3a.75.75,0,0,1,0,.24c0,.18,0,.41,0,.68,0,.65,0,1.52.09,2.63.08,2.33.19,5.62.32,9.66.29,8.16.79,19.43,1.35,31.88s1,23.72,1.19,31.89c.11,4.08.15,7.39.16,9.67,0,1.11,0,2,0,2.63,0,.28,0,.5,0,.69a1,1,0,0,1,0,.23.72.72,0,0,1,0-.23l0-.69c0-.64-.05-1.52-.09-2.62-.07-2.33-.18-5.62-.32-9.67-.28-8.16-.79-19.43-1.34-31.88s-1-23.72-1.2-31.89c-.1-4.08-.14-7.38-.15-9.67,0-1.11,0-2,0-2.63v-.68A.75.75,0,0,1,116.63,352.3Z" style="fill:#eb996e"></path><path d="M103.45,438.88s12.53,5.44,16.39-2.37l2.07,3L133,461.28a3.16,3.16,0,0,1-1,4.08,3.06,3.06,0,0,1-3.3.07c-5.38-3.33-25.12-15.64-25.41-17.82l-1.13-5.69a2.93,2.93,0,0,1,1.28-3Z" style="fill:#064420"></path><g style="opacity:0.6000000000000001"><path d="M131.51,465.63l-28.63-20,.26,1.24c.17,1.37.87,1.78,1.69,2.5,2.43,2.16,8.87,6.76,23.79,16.07a3.06,3.06,0,0,0,2.89.18Z" style="fill:#fff"></path></g><g style="opacity:0.6000000000000001"><path d="M105.52,441.22a1.86,1.86,0,0,1,1,2.27,1.78,1.78,0,0,1-2.23,1,2,2,0,0,1-1.06-2.4,1.85,1.85,0,0,1,2.44-.8" style="fill:#fff"></path></g><path d="M122.08,454.29c.18,0,.51-1.63,2.08-2.82s3.23-1.18,3.22-1.37-.4-.23-1.11-.18a4.83,4.83,0,0,0-2.52,1,4.72,4.72,0,0,0-1.58,2.22C122,453.84,122,454.28,122.08,454.29Z" style="fill:#263238"></path><path d="M125,457.76c.17.1.91-1.06,2.32-1.81s2.77-.79,2.78-1-1.49-.48-3.09.41S124.84,457.71,125,457.76Z" style="fill:#263238"></path><path d="M117.12,450.1c.17.11,1.29-1.66,3.4-3s4.15-1.74,4.12-1.94-2.25-.11-4.49,1.4S117,450.05,117.12,450.1Z" style="fill:#263238"></path><path d="M115.12,443.17c.12.16,1.59-.86,3.68-1.39s3.86-.38,3.88-.57-1.81-.65-4.05-.06S115,443.06,115.12,443.17Z" style="fill:#263238"></path><path d="M120,441.47a2.57,2.57,0,0,0-.39-1.06,8,8,0,0,0-2-2.4,3.46,3.46,0,0,0-2-1,1.23,1.23,0,0,0-1.18.78,2.06,2.06,0,0,0,.08,1.43,4.34,4.34,0,0,0,5,2.25,5,5,0,0,0,3.55-4.32,1.74,1.74,0,0,0-.48-1.37,1.19,1.19,0,0,0-1.41-.1,4.3,4.3,0,0,0-1.43,1.7,8.81,8.81,0,0,0-1,2.92,3.05,3.05,0,0,0,0,1.14,14.18,14.18,0,0,1,1.43-3.83,4.07,4.07,0,0,1,1.28-1.45.64.64,0,0,1,.77.05,1.2,1.2,0,0,1,.27.92,4.48,4.48,0,0,1-3.13,3.71,3.77,3.77,0,0,1-4.31-1.85,1.48,1.48,0,0,1-.09-1,.65.65,0,0,1,.64-.44,3.17,3.17,0,0,1,1.72.79A11.59,11.59,0,0,1,120,441.47Z" style="fill:#263238"></path><path d="M108,102.75a12.59,12.59,0,0,1,23.4-2.33c2.14,4.26,2,9.86,5.62,13,2.49,2.11,6.17,2.42,8.6,4.61,5.14,4.62,1.9,14.61,7.36,18.85a28.59,28.59,0,0,1-12.07,5.51,7.79,7.79,0,0,0-2.08-4c.89,2.56-.58,5.47-2.78,7.05s-4.95,2.13-7.63,2.55c-6.44,1-13.1,1.53-19.44,0s-12.38-5.38-15.27-11.23c-.73-1.49-1.28-3.12-2.49-4.26s-3.15-1.66-4.77-2.42a12.53,12.53,0,0,1-7-12c4.23-.18,7.21-4.19,9-8s3.24-8.17,6.76-10.52a9.27,9.27,0,0,1,13.87,4.61" style="fill:#263238"></path><path d="M133.25,116.32c-.48-6.59-7.66-13.11-14.23-12.35l-21.3,4.28.11,3.56,1.88,52.26,16.48,16,7.12-16V150.62s8.42-1.49,10-12.51C134.16,132.62,133.79,123.65,133.25,116.32Z" style="fill:#ffbe9d"></path><path d="M129.17,125a1.42,1.42,0,0,1-1.35,1.44,1.35,1.35,0,0,1-1.46-1.26,1.4,1.4,0,0,1,1.34-1.44A1.35,1.35,0,0,1,129.17,125Z" style="fill:#263238"></path><path d="M131,121c-.18.19-1.25-.59-2.77-.57s-2.63.79-2.79.61.09-.42.57-.78a3.91,3.91,0,0,1,2.23-.71,3.63,3.63,0,0,1,2.21.69C130.9,120.61,131.06,120.94,131,121Z" style="fill:#263238"></path><path d="M115.18,125a1.42,1.42,0,0,1-1.35,1.44,1.36,1.36,0,0,1-1.47-1.26,1.41,1.41,0,0,1,1.35-1.44A1.35,1.35,0,0,1,115.18,125Z" style="fill:#263238"></path><path d="M116.05,121.46c-.17.19-1.25-.59-2.77-.57s-2.62.79-2.79.61.09-.42.58-.78a3.78,3.78,0,0,1,2.23-.71,3.68,3.68,0,0,1,2.2.68C116,121.05,116.14,121.38,116.05,121.46Z" style="fill:#263238"></path><path d="M121.68,132.67a9.68,9.68,0,0,1,2.46-.47c.39,0,.76-.13.82-.39a2,2,0,0,0-.27-1.15c-.38-.93-.77-1.91-1.18-2.94-1.64-4.19-2.83-7.63-2.66-7.7s1.64,3.28,3.27,7.47c.4,1,.77,2,1.13,3a2.26,2.26,0,0,1,.22,1.52,1,1,0,0,1-.63.57,2.46,2.46,0,0,1-.66.1A10.22,10.22,0,0,1,121.68,132.67Z" style="fill:#263238"></path><path d="M123.29,150.65a29.18,29.18,0,0,1-15.15-3.8s3.8,7.67,15.17,6.54Z" style="fill:#eb996e"></path><path d="M121.08,136.34a2.76,2.76,0,0,0-2.47-1,2.49,2.49,0,0,0-1.71.95,1.57,1.57,0,0,0-.1,1.81,1.82,1.82,0,0,0,2,.48,5.78,5.78,0,0,0,1.93-1.18,1.67,1.67,0,0,0,.43-.45.51.51,0,0,0,0-.57" style="fill:#eb996e"></path><path d="M117.22,133.77c.25,0,.27,1.63,1.69,2.78s3.18,1,3.19,1.19-.38.32-1.13.35a4.11,4.11,0,0,1-2.66-.9,3.53,3.53,0,0,1-1.31-2.33C116.93,134.17,117.11,133.76,117.22,133.77Z" style="fill:#263238"></path><path d="M116.35,117.17c-.15.41-1.67.23-3.45.47s-3.21.73-3.45.36c-.11-.17.14-.56.71-1a5.85,5.85,0,0,1,2.56-.92,5.7,5.7,0,0,1,2.7.29C116.08,116.65,116.41,117,116.35,117.17Z" style="fill:#263238"></path><path d="M130.88,115.82c-.27.34-1.32,0-2.58,0s-2.32.26-2.57-.1c-.1-.17.06-.52.52-.85a3.72,3.72,0,0,1,4.14.08C130.84,115.29,131,115.65,130.88,115.82Z" style="fill:#263238"></path><path d="M118.68,104.43a11.71,11.71,0,0,1-8.14,10.16c-1.77.52-4,.89-4.6,2.63s1,3.51,1.8,5.26a6,6,0,0,1-1.26,6.5c-1,.93-2.21,1.52-3.11,2.51a5.91,5.91,0,0,0-1.33,4.94,8.45,8.45,0,0,0,2.53,4.56c-4.16.15-8.68-2.06-10-6-.76-2.36-.29-4.92.09-7.37a92.93,92.93,0,0,0,1-16.91,4.46,4.46,0,0,1,.51-2.78,4.27,4.27,0,0,1,2.43-1.35,138,138,0,0,1,18-3.93" style="fill:#263238"></path><path d="M116.25,102.78a23.27,23.27,0,0,0,4,6,7.86,7.86,0,0,0,6.5,2.45l-1.23-2.17a34.85,34.85,0,0,0,11.69,8.21c-2.11-4.18-4.29-8.45-7.74-11.61s-8.49-5-12.9-3.46" style="fill:#263238"></path><path d="M191.17,183.26s3.84-4.49,5.45-4.68,3.14.95,4.95,1.33,10.37.57,10.66,1a4.66,4.66,0,0,1,.48,1.19s9.42.6,10.37,1.16a4.44,4.44,0,0,1,1.42,1.32s3.33.19,4,1c0,0,2.19.19,2.28,1.33,0,0-17.92,2.48-19.8,2.38a84.85,84.85,0,0,1-8.63-1.8l-2,.85-.59,2Z" style="fill:#ffbe9d"></path><path d="M214.3,182.39a29.86,29.86,0,0,1-6.45-.62,30.43,30.43,0,0,1-6.31-1.51,61,61,0,0,1,6.39,1A61.47,61.47,0,0,1,214.3,182.39Z" style="fill:#eb996e"></path><path d="M224.47,184.58a35.11,35.11,0,0,1-6.82.87,35.73,35.73,0,0,1-6.87.08,60.63,60.63,0,0,1,6.84-.59A64.33,64.33,0,0,1,224.47,184.58Z" style="fill:#eb996e"></path><path d="M228.38,185.62s.1,0,.19.1a.5.5,0,0,1-.08.61,1.29,1.29,0,0,1-.9.27l-1.17.07c-1.73.09-4.12.17-6.76.23s-5,.09-6.76.08a15.58,15.58,0,0,1-2.81-.12,15.54,15.54,0,0,1,2.8-.25c1.73-.09,4.12-.17,6.76-.23s5-.09,6.76-.08h1.17a1.17,1.17,0,0,0,.78-.13.41.41,0,0,0,.12-.41C228.44,185.67,228.37,185.64,228.38,185.62Z" style="fill:#eb996e"></path><path d="M82.62,270.94s-4.27,16.93-2.81,26.5S87,360.11,87,360.11l5.53.26,51.31,2.37s8.07-47.6,11.26-61.48-2.56-30.32-2.56-30.32l-29.18-13.68Z" style="fill:#455a64"></path><path d="M97.35,151.63l-4.14,7.21-19,8.29,7.35,35,10.84,31.62L76.68,287.21l81,7.19s-8.19-51.36-11.18-61.7l-2.72-26.92-1.2-43.51-17.45-5.2L123,153.88l-7.94,23.53Z" style="fill:#455a64"></path><path d="M50.92,232.07s-5.17-7.61-4.08-13,22.84-47.59,22.84-47.59l4.49-4.3,1.92,3.71,5.43,31.33-14.88,20,20,17.22c0,1.09-7.23,14.89-7.23,14.89S51.19,235.61,50.92,232.07Z" style="fill:#455a64"></path><path d="M53.14,224.9a6.25,6.25,0,0,1,1.76-1.12,19.76,19.76,0,0,1,9.79-2.08,6.24,6.24,0,0,1,2.06.31,42.87,42.87,0,0,0-7,.61A41.68,41.68,0,0,0,53.14,224.9Z" style="fill:#263238"></path><path d="M66.75,222c-.1.16-3.15-2.31-7.59-4a32.77,32.77,0,0,0-8.37-1.72,7.93,7.93,0,0,1,2.54-.09,21.06,21.06,0,0,1,6,1.32,25.23,25.23,0,0,1,5.44,2.86A9.3,9.3,0,0,1,66.75,222Z" style="fill:#263238"></path><path d="M142.56,162.27a130.14,130.14,0,0,1,8,12.07c3.78,6.5,14.68,30,14.68,30L189,181.68l13,9.64s-29.57,35.75-35,37.49-8-1.52-8-1.52l-15.07-20.1-2.4-27.64Z" style="fill:#455a64"></path><path d="M147.12,234.89a1.62,1.62,0,0,1-.11-.22l-.28-.68c-.24-.6-.57-1.5-1-2.63-1-2.26-2.44-5.5-4.47-9.39-4-7.83-10.12-18.33-17.22-29.71s-13.81-21.51-18.72-28.81c-2.45-3.61-4.43-6.55-5.84-8.62l-1.57-2.36-.4-.62c-.09-.14-.13-.21-.12-.22a2.15,2.15,0,0,1,.16.19l.44.59,1.66,2.3c1.44,2,3.47,4.92,6,8.53,5,7.25,11.74,17.36,18.86,28.74s13.18,21.94,17.11,29.82c2,3.92,3.4,7.2,4.33,9.48.44,1.15.74,2.06,1,2.67l.23.7A.78.78,0,0,1,147.12,234.89Z" style="fill:#263238"></path><path d="M73.18,182.61c.13-.05,3.25,7.3,7,16.42s6.61,16.56,6.47,16.62-3.24-7.3-7-16.42S73.05,182.66,73.18,182.61Z" style="fill:#263238"></path><path d="M140.7,171.07c.15,0,1.06,8.5,2,19s1.66,19,1.52,19.06-1.06-8.5-2-19S140.56,171.08,140.7,171.07Z" style="fill:#263238"></path><path d="M157.66,294.4a4,4,0,0,1-.82.05c-.54,0-1.34,0-2.36,0-2,0-5-.12-8.67-.4L133,293l-7.56-.65-8.14-.52c-11.15-.69-21.24-1.59-28.48-2.71-3.63-.53-6.54-1.1-8.55-1.5L78,287.1a4.69,4.69,0,0,1-.79-.22A5.43,5.43,0,0,1,78,287l2.32.42c2,.34,4.93.85,8.56,1.34,7.24,1,17.32,1.86,28.47,2.55l8.13.53,7.57.69,12.8,1.18c3.64.32,6.6.48,8.64.56l2.36.08A5.2,5.2,0,0,1,157.66,294.4Z" style="fill:#263238"></path><path d="M131,185.62a13.6,13.6,0,0,1-2.21,1.55c-1.4.89-3.37,2.08-5.57,3.33s-4.24,2.33-5.73,3.07a11.93,11.93,0,0,1-2.46,1.1,15.89,15.89,0,0,1,2.29-1.42l5.64-3.2,5.64-3.2A14.62,14.62,0,0,1,131,185.62Z" style="fill:#263238"></path><path d="M134.38,193.4a10.39,10.39,0,0,1-2.13,1.3c-1.35.73-3.25,1.69-5.38,2.66s-4.11,1.77-5.55,2.3a10.58,10.58,0,0,1-2.38.75,12.48,12.48,0,0,1,2.24-1.09l5.47-2.44,5.44-2.51A13.2,13.2,0,0,1,134.38,193.4Z" style="fill:#263238"></path><path d="M121.62,342.19a10,10,0,0,1-.1-1.58c0-1-.08-2.49-.16-4.31-.17-3.64-.55-8.66-1.32-14.16s-1.82-10.42-2.67-14c-.43-1.77-.78-3.2-1-4.19a9.67,9.67,0,0,1-.35-1.55,8.08,8.08,0,0,1,.54,1.49c.32,1,.73,2.39,1.2,4.16a119.24,119.24,0,0,1,2.83,14,123.67,123.67,0,0,1,1.18,14.21c0,1.83,0,3.31,0,4.33A8.64,8.64,0,0,1,121.62,342.19Z" style="fill:#263238"></path><g style="opacity:0.30000000000000004"><path d="M86.88,254.23a5.33,5.33,0,0,0,4.64-1.83c1.22-1.23,2.12-2.75,3.36-4a25,25,0,0,1,5.84-3.71,12.93,12.93,0,0,0,5.28-4.38c1.19-2,1.25-4.82-.44-6.4-2-1.9-5.36-1.15-7.79.21A21.53,21.53,0,0,0,87,253.54"></path></g><path d="M86.37,240.2l9.32-11,7.89-1.15a1.94,1.94,0,0,1-1,2.49c-1.28.71-5.32,1.07-5.32,1.07l-2.45,2.94,3.77-1.92,7.34-.71s.62,2-1,2.63c0,0-.71,2.27-1.83,3a8.75,8.75,0,0,1-3.06.92s1,1.12.31,2-4.13,1.42-4.13,1.42l-5.33,2.7s-2.69,8.23-4.12,8.43-5.65-2.09-5.65-2.09Z" style="fill:#ffbe9d"></path><path d="M98.58,232.61c.15.21-1.59,1.27-3.75,2.43a31.65,31.65,0,0,1-4,2c-.1-.14,1.56-1.3,3.74-2.46,1.08-.58,2.08-1.08,2.8-1.43S98.55,232.6,98.58,232.61Z" style="fill:#eb996e"></path><path d="M105.22,234.59a10.28,10.28,0,0,1-2.14.26,13.26,13.26,0,0,0-4.89,1.31c-1.78.89-3.3,2-4.5,2.55a5.58,5.58,0,0,1-2,.78,18.28,18.28,0,0,1,1.84-1.1c1.13-.67,2.61-1.77,4.45-2.7a11.56,11.56,0,0,1,5.1-1.2A8.11,8.11,0,0,1,105.22,234.59Z" style="fill:#eb996e"></path><g style="opacity:0.30000000000000004"><path d="M155.37,294.36a109.82,109.82,0,0,1-70.87-5.85Z"></path></g></g></svg>